<svg xmlns="http://www.w3.org/2000/svg" viewBox="0 0 128.4 29.1">
  <g id="Layer_2" data-name="Layer 2">
    <g id="table">
      <path d="M28.9,7.4a2.7,2.7,0,0,1,1.4-.3h.5l.3.2v.3l-3,14.9c0,.2-.2.4-.5.5H26.5c-.3-.1-1-.3-1.2-.9a11.9,11.9,0,0,1-.3-2,7.6,7.6,0,0,1-.8,1.1,6.9,6.9,0,0,1-1.3,1.1l-1.7.8a5.8,5.8,0,0,1-1.9.3,5.1,5.1,0,0,1-2.2-.5,4.1,4.1,0,0,1-1.4-1.2A4.8,4.8,0,0,1,15,20a7.6,7.6,0,0,1-.3-2.1,19.5,19.5,0,0,1,.2-2.3,18.2,18.2,0,0,1,.7-2.5,12.2,12.2,0,0,1,1-2.4,15.6,15.6,0,0,1,1.6-2,9,9,0,0,1,2-1.4,7.6,7.6,0,0,1,2.7-.5,4.8,4.8,0,0,1,2.4.6,3.9,3.9,0,0,1,1.5,1.2c.3.4.4.6.6.7s.3-.1.5-.6A4.5,4.5,0,0,1,28.9,7.4Zm-2.8,4.8a4.4,4.4,0,0,0-1.3-1.4,3.1,3.1,0,0,0-1.7-.5,2.8,2.8,0,0,0-1.2.4,3.1,3.1,0,0,0-1.1.9,4,4,0,0,0-.7,1.3,3.4,3.4,0,0,0-.6,1.5,4.1,4.1,0,0,0-.3,1.6,7.7,7.7,0,0,0-.2,1.5c0,.3.1.6.1.9l.3.8.5.6.9.2a3,3,0,0,0,1.5-.5,5.3,5.3,0,0,0,1.4-1.2l1.2-1.7a8.1,8.1,0,0,0,.7-2.2Z" fill="#3cbf4a"/>
      <path d="M109.6,7.4a2.4,2.4,0,0,1,1.4-.3h.5c.1.1.2.1.2.2a.4.4,0,0,1,.1.3l-3,14.9c0,.2-.2.4-.5.5h-1.2c-.2-.1-.9-.3-1.1-.9a16.8,16.8,0,0,1-.4-2,2.6,2.6,0,0,1-.8,1.1,4.7,4.7,0,0,1-1.3,1.1l-1.6.8a5.8,5.8,0,0,1-1.9.3,4.8,4.8,0,0,1-2.2-.5,3.3,3.3,0,0,1-1.4-1.2,4.9,4.9,0,0,1-.8-1.8,14.9,14.9,0,0,1-.2-2.1,19.5,19.5,0,0,1,.2-2.3,10.2,10.2,0,0,1,.6-2.5,25.6,25.6,0,0,1,1.1-2.4,9.5,9.5,0,0,1,1.5-2,6.6,6.6,0,0,1,4.8-1.9,4.8,4.8,0,0,1,2.4.6,3.9,3.9,0,0,1,1.5,1.2c.3.4.3.6.5.7s.4-.1.6-.6A4.5,4.5,0,0,1,109.6,7.4Zm-2.9,4.8a4.4,4.4,0,0,0-1.3-1.4,2.8,2.8,0,0,0-1.6-.5,3.1,3.1,0,0,0-2.3,1.3,4.1,4.1,0,0,0-.8,1.3,5.3,5.3,0,0,0-.5,1.5,7.5,7.5,0,0,0-.4,1.6,7.6,7.6,0,0,0-.1,1.5,2.8,2.8,0,0,0,.1.9,1.1,1.1,0,0,0,.3.8l.5.6.8.2a3,3,0,0,0,1.5-.5,7.9,7.9,0,0,0,1.5-1.2,9.9,9.9,0,0,0,1.1-1.7,8.3,8.3,0,0,0,.8-2.2Z" fill="#3cbf4a"/>
      <path d="M44,12.2a4.4,4.4,0,0,0-1.3-1.4,2.8,2.8,0,0,0-1.6-.5,2.8,2.8,0,0,0-1.3.4l-1,.8a5.7,5.7,0,0,0-.8,1.3,8.8,8.8,0,0,0-.5,1.5,9.4,9.4,0,0,0-.4,1.6,7.6,7.6,0,0,0-.1,1.5,3.2,3.2,0,0,0,.4,1.9,1.4,1.4,0,0,0,1.3.7,3,3,0,0,0,1.5-.5,7.9,7.9,0,0,0,1.5-1.2,5.6,5.6,0,0,0,1.1-1.7,9,9,0,0,0,.8-2.1Zm-1.1,8a3.8,3.8,0,0,1-.8,1.1,4.7,4.7,0,0,1-1.3,1.1l-1.6.8a6.3,6.3,0,0,1-1.9.3l-1.7-.2-1.2-.7a3.9,3.9,0,0,1-.8-1,4.3,4.3,0,0,1-.5-1.2,2.8,2.8,0,0,1-.3-1.3,5.7,5.7,0,0,1-.1-1.3,19.5,19.5,0,0,1,.2-2.3,11.4,11.4,0,0,1,.6-2.5,16.3,16.3,0,0,1,1.1-2.3,7.5,7.5,0,0,1,1.5-2,7.7,7.7,0,0,1,2.1-1.4,7.6,7.6,0,0,1,2.7-.5h1.2l1.1.4.9.6c.2.2.5.4.6.7L46.3.8c0-.1.1-.2.2-.3l.3-.3h3.3l.3.3a.4.4,0,0,1,.1.3L46.1,22.6c0,.2-.2.4-.5.5H44.4c-.2-.1-1-.3-1.1-.9a16.8,16.8,0,0,1-.4-2" fill="#3cbf4a"/>
      <path d="M66.6,12.7a11,11,0,0,1-.2,2.5,10.9,10.9,0,0,1-.7,2.4,8.4,8.4,0,0,1-1.2,2.3,10.7,10.7,0,0,1-1.8,1.9A11.5,11.5,0,0,1,60.2,23a9.4,9.4,0,0,1-3,.5,8.1,8.1,0,0,1-2.9-.4A5.3,5.3,0,0,1,52.2,22,6.2,6.2,0,0,1,51,20.1a9.3,9.3,0,0,1-.4-2.5,22.9,22.9,0,0,1,.2-2.5,21.7,21.7,0,0,1,.7-2.4,17.1,17.1,0,0,1,1.3-2.3,10.7,10.7,0,0,1,1.8-1.9A9,9,0,0,1,57,7.3a7.5,7.5,0,0,1,3.1-.5,8.5,8.5,0,0,1,2.9.4,4.3,4.3,0,0,1,2,1.1,3.9,3.9,0,0,1,1.2,1.9A6.6,6.6,0,0,1,66.6,12.7Zm-4.3.3a4.1,4.1,0,0,0-.1-1.2,1.9,1.9,0,0,0-.5-.9,1.6,1.6,0,0,0-.8-.6,2.7,2.7,0,0,0-1.3-.2,4,4,0,0,0-1.5.3,3.1,3.1,0,0,0-1.1.9,3.4,3.4,0,0,0-.9,1.2,7.7,7.7,0,0,0-.7,1.6,7.6,7.6,0,0,0-.3,1.6,8.8,8.8,0,0,0-.2,1.6,5,5,0,0,0,.2,1.2,1.9,1.9,0,0,0,.4.9,1.8,1.8,0,0,0,.9.6l1.2.2a3.3,3.3,0,0,0,1.5-.3,4.7,4.7,0,0,0,1.2-.9l.9-1.3a4.7,4.7,0,0,0,.6-1.5,12.4,12.4,0,0,0,.4-1.6A9.2,9.2,0,0,0,62.3,13Z" fill="#3cbf4a"/>
      <path d="M84.6,12.4a21.2,21.2,0,0,1-.2,2.4l-.6,2.4a17.5,17.5,0,0,1-1.1,2.4,7.8,7.8,0,0,1-1.6,2,9,9,0,0,1-2,1.4,7.6,7.6,0,0,1-2.7.5H75.2L74.1,23l-.9-.6-.7-.7-1.3,6.7c0,.1-.1.2-.1.3l-.4.3H67.4q-.3-.2-.3-.3a.4.4,0,0,1-.1-.3L71.2,7.7c0-.2.2-.4.5-.5h2.8c.2.1.3.1.3.2s.1.2,0,.3l-.4,2.4A3.3,3.3,0,0,1,75.2,9a4.7,4.7,0,0,1,1.3-1.1l1.6-.8A5.8,5.8,0,0,1,80,6.8a4.4,4.4,0,0,1,2.1.4,3.3,3.3,0,0,1,1.4,1.2,3.7,3.7,0,0,1,.8,1.8A8.3,8.3,0,0,1,84.6,12.4Zm-4.3.4c0-.4-.1-.7-.1-1l-.3-.8c-.2-.2-.3-.4-.6-.5l-.7-.2a3,3,0,0,0-1.5.5A5.7,5.7,0,0,0,75.6,12a9.9,9.9,0,0,0-1.1,1.7,8.3,8.3,0,0,0-.8,2.2l-.4,2.2a4.2,4.2,0,0,0,1.2,1.4,3.4,3.4,0,0,0,1.7.5,1.7,1.7,0,0,0,1.2-.4,3.1,3.1,0,0,0,1.1-.9,12.5,12.5,0,0,0,.8-1.2,7.5,7.5,0,0,0,.5-1.6,7.5,7.5,0,0,0,.4-1.6C80.2,13.8,80.3,13.3,80.3,12.8Z" fill="#3cbf4a"/>
      <path d="M90.3,22.6c0,.1,0,.2-.1.2l-.4.3H86.5l-.3-.3v-.2L90.5.7l.2-.3.4-.2.7-.2h2l.6.2.3.2V.7Z" fill="#3cbf4a"/>
      <path d="M128.4,11a4.9,4.9,0,0,1-.1,1.2c0,.4-.1.8-.1,1.2l-1.9,9.2v.2l-.4.3h-3.3q-.3-.2-.3-.3c-.1,0-.1-.1-.1-.2l1.8-8.9c.1-.3.1-.6.2-.8v-.8a2.1,2.1,0,0,0-.3-1.2,1.3,1.3,0,0,0-1.1-.5,4.3,4.3,0,0,0-1.4.4,5.3,5.3,0,0,0-1.4,1.2l-1.2,1.7a8.6,8.6,0,0,0-.7,2.1l-1.3,6.8-.2.2-.4.3h-3.3l-.3-.3v-.2l3-14.9a.4.4,0,0,1,.1-.3l.3-.2h2.8l.3.2v.3l-.5,2.5a4.7,4.7,0,0,1,.9-1.2l1.4-1.1a8,8,0,0,1,1.6-.8,5.8,5.8,0,0,1,1.9-.3,5.4,5.4,0,0,1,1.9.3,4.5,4.5,0,0,1,1.3,1,2.7,2.7,0,0,1,.7,1.3A8.8,8.8,0,0,1,128.4,11Z" fill="#3cbf4a"/>
      <path d="M6.1,7.9c0-1,.4-2.2-.8-2.7S.8,5.9.3,6.8s0,.7.8.6,1.2.7,1.4,1.7S1.6,14.4.9,18L.1,21.9s-.4,1.2.6,1.2a9.7,9.7,0,0,0,1.8.1c1.1,0,1.6-.3,1.8-1.5s.7-3.6.9-4.8.7-3.4,1.9-4.5a7.1,7.1,0,0,1,4.2-1.9c1,0,1.2.2,1.2.2s.7.5,1-.8A15.4,15.4,0,0,0,14,7.3c0-.4-.5-.7-1.4-.7A9.2,9.2,0,0,0,7.7,8,4.3,4.3,0,0,0,6.3,9.6s-.4.2-.3-.2S6.1,8.3,6.1,7.9Z" fill="#3cbf4a"/>
    </g>
  </g>
</svg>
